<?xml version="1.0" encoding="UTF-8"?>
<svg id="Layer_2" data-name="Layer 2" xmlns="http://www.w3.org/2000/svg" viewBox="0 0 94.92 14.8">
  <defs>
    <style>
      .cls-1 {
        fill: #ffffff;
      }
    </style>
  </defs>
  <g id="Layer_1-2" data-name="Layer 1">
    <g>
      <path class="cls-1" d="m9.67,9.3l2.8.89c-.43,1.56-1.14,2.72-2.14,3.48-1,.76-2.27,1.14-3.8,1.14-1.9,0-3.46-.65-4.69-1.95-1.22-1.3-1.84-3.07-1.84-5.33C0,5.15.62,3.3,1.85,1.98S4.69,0,6.7,0c1.75,0,3.17.52,4.27,1.55.65.61,1.14,1.49,1.46,2.64l-2.86.68c-.17-.74-.52-1.33-1.06-1.76s-1.19-.64-1.96-.64c-1.06,0-1.92.38-2.58,1.14-.66.76-.99,2-.99,3.7,0,1.81.33,3.1.98,3.87.65.77,1.5,1.15,2.54,1.15.77,0,1.43-.24,1.98-.73.55-.49.95-1.26,1.19-2.3Z"/>
      <path class="cls-1" d="m14.37,7.49c0-1.46.22-2.68.65-3.67.33-.73.77-1.38,1.33-1.96.56-.58,1.18-1.01,1.85-1.29.89-.38,1.92-.57,3.09-.57,2.11,0,3.8.65,5.06,1.96,1.27,1.31,1.9,3.13,1.9,5.46s-.63,4.12-1.88,5.42c-1.26,1.31-2.94,1.96-5.04,1.96s-3.82-.65-5.08-1.95c-1.26-1.3-1.88-3.09-1.88-5.37Zm2.98-.1c0,1.62.38,2.85,1.12,3.69.75.84,1.7,1.25,2.85,1.25s2.1-.42,2.84-1.25c.74-.83,1.11-2.08,1.11-3.74s-.36-2.86-1.08-3.67c-.72-.81-1.67-1.21-2.87-1.21s-2.15.41-2.88,1.23c-.73.82-1.09,2.05-1.09,3.7Z"/>
      <path class="cls-1" d="m30.54,14.56V.24h2.81l5.86,9.56V.24h2.69v14.32h-2.9l-5.77-9.34v9.34h-2.69Z"/>
      <path class="cls-1" d="m48.17,14.56V2.67h-4.25V.24h11.38v2.42h-4.24v11.89h-2.89Z"/>
      <path class="cls-1" d="m68.59,14.56h-3.14l-1.25-3.25h-5.72l-1.18,3.25h-3.07L59.8.24h3.06l5.73,14.32Zm-5.32-5.66l-1.97-5.31-1.93,5.31h3.91Z"/>
      <path class="cls-1" d="m79.29,9.3l2.8.89c-.43,1.56-1.14,2.72-2.14,3.48-1,.76-2.27,1.14-3.8,1.14-1.9,0-3.46-.65-4.69-1.95-1.22-1.3-1.84-3.07-1.84-5.33,0-2.38.62-4.23,1.85-5.55s2.85-1.98,4.85-1.98c1.75,0,3.17.52,4.27,1.55.65.61,1.14,1.49,1.46,2.64l-2.86.68c-.17-.74-.52-1.33-1.06-1.76s-1.19-.64-1.96-.64c-1.06,0-1.92.38-2.58,1.14-.66.76-.99,2-.99,3.7,0,1.81.33,3.1.98,3.87.65.77,1.5,1.15,2.54,1.15.77,0,1.43-.24,1.98-.73.55-.49.95-1.26,1.19-2.3Z"/>
      <path class="cls-1" d="m87.79,14.56V2.67h-4.25V.24h11.38v2.42h-4.24v11.89h-2.89Z"/>
    </g>
    <ellipse class="cls-1" cx="21.18" cy="7.48" rx="4.67" ry="6"/>
  </g>
</svg>