<?xml version="1.0" encoding="UTF-8"?>
<svg id="Layer_2" data-name="Layer 2" xmlns="http://www.w3.org/2000/svg" viewBox="0 0 57.54 14.8">
  <defs>
    <style>
      .cls-1 {
        fill: #231f20;
      }
    </style>
  </defs>
  <g id="Layer_1-2" data-name="Layer 1">
    <g>
      <path class="cls-1" d="m0,14.56V.24h2.89v5.63h5.66V.24h2.89v14.32h-2.89v-6.26H2.89v6.26H0Z"/>
      <path class="cls-1" d="m13.85,7.49c0-1.46.22-2.68.65-3.67.33-.73.77-1.38,1.33-1.96s1.18-1.01,1.85-1.29c.89-.38,1.92-.57,3.09-.57,2.11,0,3.8.65,5.06,1.96s1.9,3.13,1.9,5.46-.63,4.12-1.88,5.42-2.94,1.96-5.04,1.96-3.82-.65-5.08-1.95-1.88-3.09-1.88-5.37Zm2.98-.1c0,1.62.37,2.85,1.12,3.69s1.7,1.25,2.85,1.25,2.1-.42,2.84-1.25,1.11-2.08,1.11-3.74-.36-2.86-1.08-3.67-1.67-1.21-2.87-1.21-2.15.41-2.88,1.23-1.09,2.05-1.09,3.7Z"/>
      <path class="cls-1" d="m29.95,14.56V.24h4.33l2.6,9.77L39.44.24h4.34v14.32h-2.69V3.29l-2.84,11.27h-2.78l-2.83-11.27v11.27h-2.69Z"/>
      <path class="cls-1" d="m46.65,14.56V.24h10.62v2.42h-7.72v3.17h7.19v2.41h-7.19v3.9h8v2.41h-10.89Z"/>
    </g>
  </g>
</svg>