<?xml version="1.0" encoding="UTF-8"?>
<svg id="Layer_2" data-name="Layer 2" xmlns="http://www.w3.org/2000/svg" viewBox="0 0 81.66 14.81">
  <defs>
    <style>
      .cls-1 {
        fill: #ffffff;
      }
    </style>
  </defs>
  <g id="Layer_1-2" data-name="Layer 1">
    <g>
      <path class="cls-1" d="m0,14.56V.24h4.64c1.76,0,2.9.07,3.44.21.82.21,1.51.68,2.06,1.4s.83,1.65.83,2.79c0,.88-.16,1.62-.48,2.22s-.72,1.07-1.22,1.41-.99.57-1.5.68c-.69.14-1.69.21-3,.21h-1.88v5.4H0ZM2.89,2.67v4.06h1.58c1.14,0,1.9-.08,2.29-.22s.69-.38.9-.7.33-.69.33-1.11c0-.52-.15-.95-.46-1.29s-.69-.55-1.16-.63c-.35-.07-1.04-.1-2.08-.1h-1.4Z"/>
      <path class="cls-1" d="m13.35,14.56V.24h2.89v5.63h5.66V.24h2.89v14.32h-2.89v-6.26h-5.66v6.26h-2.89Z"/>
      <path class="cls-1" d="m27.2,7.49c0-1.46.22-2.68.65-3.67.33-.73.77-1.38,1.33-1.96s1.18-1.01,1.85-1.29c.89-.38,1.92-.57,3.09-.57,2.11,0,3.8.65,5.06,1.96s1.9,3.13,1.9,5.46-.63,4.12-1.88,5.42-2.94,1.96-5.04,1.96-3.82-.65-5.08-1.95-1.88-3.09-1.88-5.37Zm2.98-.1c0,1.62.37,2.85,1.12,3.69s1.7,1.25,2.85,1.25,2.1-.42,2.84-1.25,1.11-2.08,1.11-3.74-.36-2.86-1.08-3.67-1.67-1.21-2.87-1.21-2.15.41-2.88,1.23-1.09,2.05-1.09,3.7Z"/>
      <path class="cls-1" d="m46.56,14.56V2.67h-4.25V.24h11.38v2.42h-4.24v11.89h-2.89Z"/>
      <path class="cls-1" d="m54.61,7.49c0-1.46.22-2.68.65-3.67.33-.73.77-1.38,1.33-1.96.56-.58,1.18-1.01,1.85-1.29.89-.38,1.92-.57,3.09-.57,2.11,0,3.8.65,5.06,1.96,1.27,1.31,1.9,3.13,1.9,5.46s-.63,4.12-1.88,5.42c-1.26,1.31-2.94,1.96-5.04,1.96s-3.82-.65-5.08-1.95c-1.26-1.3-1.88-3.09-1.88-5.37Zm2.98-.1c0,1.62.38,2.85,1.12,3.69.75.84,1.7,1.25,2.85,1.25s2.1-.42,2.84-1.25c.74-.83,1.11-2.08,1.11-3.74s-.36-2.86-1.08-3.67c-.72-.81-1.67-1.21-2.87-1.21s-2.15.41-2.88,1.23c-.73.82-1.09,2.05-1.09,3.7Z"/>
      <path class="cls-1" d="m70.02,9.9l2.81-.27c.17.94.51,1.64,1.03,2.08s1.22.66,2.09.66c.93,0,1.63-.2,2.1-.59.47-.39.71-.85.71-1.38,0-.34-.1-.63-.3-.86-.2-.24-.54-.44-1.04-.62-.34-.12-1.11-.33-2.31-.62-1.55-.38-2.64-.86-3.26-1.42-.88-.79-1.32-1.75-1.32-2.88,0-.73.21-1.41.62-2.05.41-.63,1.01-1.12,1.79-1.45.78-.33,1.72-.5,2.82-.5,1.8,0,3.15.39,4.06,1.18s1.39,1.84,1.43,3.15l-2.89.13c-.12-.74-.39-1.26-.8-1.59-.41-.32-1.02-.48-1.83-.48s-1.5.17-1.97.52c-.31.22-.46.52-.46.89,0,.34.14.63.43.87.37.31,1.25.62,2.66.96s2.45.68,3.12,1.03,1.2.84,1.58,1.46.57,1.38.57,2.28c0,.82-.23,1.59-.68,2.3-.46.72-1.1,1.25-1.93,1.6-.83.35-1.87.52-3.12.52-1.81,0-3.2-.42-4.17-1.25-.97-.84-1.55-2.06-1.74-3.66Z"/>
    </g>
  </g>
</svg>