<?xml version="1.0" encoding="UTF-8"?>
<svg id="Layer_2" data-name="Layer 2" xmlns="http://www.w3.org/2000/svg" viewBox="0 0 97.02 14.8">
  <defs>
    <style>
      .cls-1 {
        fill: #ffffff;
      }
    </style>
  </defs>
  <g id="Layer_1-2" data-name="Layer 1">
    <g>
      <path class="cls-1" d="m0,14.56V.24h4.64c1.76,0,2.9.07,3.44.21.82.21,1.51.68,2.06,1.4s.83,1.65.83,2.79c0,.88-.16,1.62-.48,2.22s-.72,1.07-1.22,1.41-.99.57-1.5.68c-.69.14-1.69.21-3,.21h-1.88v5.4H0ZM2.89,2.67v4.06h1.58c1.14,0,1.9-.08,2.29-.22s.69-.38.9-.7.33-.69.33-1.11c0-.52-.15-.95-.46-1.29s-.69-.55-1.16-.63c-.35-.07-1.04-.1-2.08-.1h-1.4Z"/>
      <path class="cls-1" d="m13.35,14.56V.24h6.08c1.53,0,2.64.13,3.33.39s1.25.71,1.67,1.37.62,1.41.62,2.26c0,1.07-.32,1.96-.95,2.66s-1.58,1.14-2.83,1.32c.62.36,1.14.76,1.55,1.2s.96,1.21,1.65,2.32l1.75,2.79h-3.46l-2.09-3.12c-.74-1.11-1.25-1.81-1.52-2.1s-.56-.49-.87-.6-.79-.16-1.46-.16h-.59v5.98h-2.89Zm2.89-8.26h2.14c1.39,0,2.25-.06,2.6-.18s.62-.32.81-.61.29-.64.29-1.07c0-.48-.13-.87-.39-1.17s-.62-.48-1.09-.56c-.23-.03-.94-.05-2.11-.05h-2.26v3.63Z"/>
      <path class="cls-1" d="m27.2,7.49c0-1.46.22-2.68.65-3.67.33-.73.77-1.38,1.33-1.96s1.18-1.01,1.85-1.29c.89-.38,1.92-.57,3.09-.57,2.11,0,3.8.65,5.06,1.96s1.9,3.13,1.9,5.46-.63,4.12-1.88,5.42-2.94,1.96-5.04,1.96-3.82-.65-5.08-1.95-1.88-3.09-1.88-5.37Zm2.98-.1c0,1.62.37,2.85,1.12,3.69s1.7,1.25,2.85,1.25,2.1-.42,2.84-1.25,1.11-2.08,1.11-3.74-.36-2.86-1.08-3.67-1.67-1.21-2.87-1.21-2.15.41-2.88,1.23-1.09,2.05-1.09,3.7Z"/>
      <path class="cls-1" d="m43.33.24h5.28c1.19,0,2.1.09,2.72.27.84.25,1.56.69,2.16,1.32s1.05,1.4,1.37,2.32.47,2.04.47,3.38c0,1.18-.15,2.19-.44,3.05-.36,1.04-.87,1.88-1.53,2.53-.5.49-1.18.87-2.03,1.14-.64.2-1.49.3-2.56.3h-5.44V.24Zm2.89,2.42v9.48h2.16c.81,0,1.39-.05,1.75-.14.47-.12.86-.32,1.17-.6s.56-.74.76-1.38.29-1.52.29-2.62-.1-1.96-.29-2.55-.47-1.05-.82-1.39-.8-.56-1.34-.67c-.4-.09-1.19-.14-2.37-.14h-1.3Z"/>
      <path class="cls-1" d="m57.76.24h2.89v7.75c0,1.23.04,2.03.11,2.39.12.59.42,1.06.88,1.41s1.1.53,1.91.53,1.44-.17,1.86-.5.67-.75.75-1.24.13-1.3.13-2.43V.24h2.89v7.52c0,1.72-.08,2.93-.23,3.64s-.44,1.31-.86,1.8-.98.88-1.68,1.17-1.62.43-2.75.43c-1.37,0-2.4-.16-3.11-.47s-1.26-.73-1.67-1.23-.68-1.03-.81-1.59c-.19-.82-.28-2.03-.28-3.63V.24Z"/>
      <path class="cls-1" d="m81.39,9.3l2.8.89c-.43,1.56-1.14,2.72-2.14,3.48s-2.27,1.14-3.8,1.14c-1.9,0-3.46-.65-4.69-1.95s-1.84-3.07-1.84-5.33c0-2.38.62-4.23,1.85-5.55s2.85-1.98,4.85-1.98c1.75,0,3.17.52,4.27,1.55.65.61,1.14,1.49,1.46,2.64l-2.86.68c-.17-.74-.52-1.33-1.06-1.76s-1.19-.64-1.96-.64c-1.06,0-1.92.38-2.58,1.14s-.99,2-.99,3.7c0,1.81.33,3.1.98,3.87s1.5,1.15,2.54,1.15c.77,0,1.43-.24,1.98-.73s.95-1.26,1.19-2.3Z"/>
      <path class="cls-1" d="m89.89,14.56V2.67h-4.25V.24h11.38v2.42h-4.24v11.89h-2.89Z"/>
    </g>
  </g>
</svg>