<?xml version="1.0" encoding="UTF-8"?>
<svg id="Layer_2" data-name="Layer 2" xmlns="http://www.w3.org/2000/svg" viewBox="0 0 133.11 14.81">
  <defs>
    <style>
      .cls-1 {
        fill: #ffffff;
      }
    </style>
  </defs>
  <g id="Layer_1-2" data-name="Layer 1">
    <g>
      <path class="cls-1" d="m0,14.56V.24h6.08c1.53,0,2.64.13,3.33.39s1.25.71,1.67,1.37.62,1.41.62,2.26c0,1.07-.32,1.96-.95,2.66s-1.58,1.14-2.83,1.32c.62.36,1.14.76,1.55,1.2s.96,1.21,1.65,2.32l1.75,2.79h-3.46l-2.09-3.12c-.74-1.11-1.25-1.81-1.52-2.1s-.56-.49-.87-.6-.79-.16-1.46-.16h-.59v5.98H0ZM2.89,6.3h2.14c1.39,0,2.25-.06,2.6-.18s.62-.32.81-.61.29-.64.29-1.07c0-.48-.13-.87-.39-1.17s-.62-.48-1.09-.56c-.23-.03-.94-.05-2.11-.05h-2.26v3.63Z"/>
      <path class="cls-1" d="m14.43,14.56V.24h10.62v2.42h-7.72v3.17h7.19v2.41h-7.19v3.9h8v2.41h-10.89Z"/>
      <path class="cls-1" d="m40.68,14.56h-3.14l-1.25-3.25h-5.72l-1.18,3.25h-3.07L31.89.24h3.06l5.73,14.32Zm-5.32-5.66l-1.97-5.31-1.93,5.31h3.91Z"/>
      <path class="cls-1" d="m42.29,14.56V.36h2.89v11.79h7.19v2.41h-10.08Z"/>
      <path class="cls-1" d="m59.63,14.56V.24h10.62v2.42h-7.72v3.17h7.19v2.41h-7.19v3.9h8v2.41h-10.89Z"/>
      <path class="cls-1" d="m72.24,9.9l2.81-.27c.17.94.51,1.64,1.03,2.08s1.22.66,2.09.66c.93,0,1.63-.2,2.1-.59s.71-.85.71-1.38c0-.34-.1-.63-.3-.86s-.55-.44-1.04-.62c-.34-.12-1.11-.33-2.31-.62-1.55-.38-2.64-.86-3.26-1.42-.88-.79-1.32-1.75-1.32-2.88,0-.73.21-1.41.62-2.05s1.01-1.12,1.79-1.45,1.72-.5,2.82-.5c1.8,0,3.15.39,4.06,1.18s1.39,1.84,1.43,3.15l-2.89.13c-.12-.74-.39-1.26-.8-1.59s-1.02-.48-1.83-.48-1.5.17-1.97.52c-.31.22-.46.52-.46.89,0,.34.14.63.43.87.36.31,1.25.62,2.66.96s2.45.68,3.12,1.03,1.2.84,1.58,1.46.57,1.38.57,2.28c0,.82-.23,1.59-.68,2.3s-1.1,1.25-1.93,1.6-1.87.52-3.12.52c-1.81,0-3.2-.42-4.17-1.25s-1.55-2.06-1.74-3.66Z"/>
      <path class="cls-1" d="m89.53,14.56V2.67h-4.25V.24h11.38v2.42h-4.24v11.89h-2.89Z"/>
      <path class="cls-1" d="m109.95,14.56h-3.14l-1.25-3.25h-5.72l-1.18,3.25h-3.07L101.16.24h3.06l5.73,14.32Zm-5.32-5.66l-1.97-5.31-1.93,5.31h3.91Z"/>
      <path class="cls-1" d="m113.22,14.56V2.67h-4.25V.24h11.38v2.42h-4.24v11.89h-2.89Z"/>
      <path class="cls-1" d="m122.22,14.56V.24h10.62v2.42h-7.73v3.17h7.19v2.41h-7.19v3.9h8v2.41h-10.89Z"/>
    </g>
  </g>
</svg>