<?xml version="1.0" encoding="UTF-8"?>
<svg id="Layer_2" data-name="Layer 2" xmlns="http://www.w3.org/2000/svg" viewBox="0 0 77.48 14.32">
  <defs>
    <style>
      .cls-1 {
        fill: #ffffff;
      }
    </style>
  </defs>
  <g id="Layer_1-2" data-name="Layer 1">
    <g>
      <path class="cls-1" d="m4.25,14.32V2.42H0V0h11.38v2.42h-4.24v11.89h-2.89Z"/>
      <path class="cls-1" d="m13.25,14.32V0h6.08c1.53,0,2.64.13,3.33.39s1.25.71,1.67,1.37.62,1.41.62,2.26c0,1.07-.32,1.96-.95,2.66s-1.58,1.14-2.83,1.32c.62.36,1.14.76,1.55,1.2s.96,1.21,1.65,2.32l1.75,2.79h-3.46l-2.09-3.12c-.74-1.11-1.25-1.81-1.52-2.1s-.56-.49-.87-.6-.79-.16-1.46-.16h-.59v5.98h-2.89Zm2.89-8.26h2.14c1.39,0,2.25-.06,2.6-.18s.62-.32.81-.61.29-.64.29-1.07c0-.48-.13-.87-.39-1.17s-.62-.48-1.09-.56c-.23-.03-.94-.05-2.11-.05h-2.26v3.63Z"/>
      <path class="cls-1" d="m40.6,14.32h-3.14l-1.25-3.25h-5.72l-1.18,3.25h-3.07L31.81,0h3.06l5.73,14.32Zm-5.32-5.66l-1.97-5.31-1.93,5.31h3.91Z"/>
      <path class="cls-1" d="m44.3,14.32L39.18,0h3.13l3.62,10.6,3.51-10.6h3.07l-5.13,14.32h-3.09Z"/>
      <path class="cls-1" d="m53.98,14.32V0h10.62v2.42h-7.72v3.17h7.19v2.41h-7.19v3.9h8v2.41h-10.89Z"/>
      <path class="cls-1" d="m67.4,14.32V.12h2.89v11.79h7.19v2.41h-10.08Z"/>
    </g>
  </g>
</svg>