<?xml version="1.0" encoding="UTF-8"?>
<svg id="Layer_2" data-name="Layer 2" xmlns="http://www.w3.org/2000/svg" viewBox="0 0 83.32 88.83">
  <defs>
    <style>
      .cls-1 {
        fill: #ffffff;
      }
    </style>
  </defs>
  <g id="Layer_1-2" data-name="Layer 1">
    <path class="cls-1" d="m0,44.94c0-8.75,1.31-16.09,3.93-22.03,1.95-4.38,4.62-8.3,8-11.78s7.08-6.05,11.1-7.73c5.35-2.27,11.52-3.4,18.52-3.4,12.66,0,22.78,3.93,30.38,11.78s11.4,18.77,11.4,32.75-3.77,24.72-11.31,32.55c-7.54,7.83-17.62,11.75-30.23,11.75s-22.93-3.9-30.47-11.69S0,58.61,0,44.94Zm17.87-.59c0,9.73,2.25,17.1,6.74,22.12,4.49,5.02,10.2,7.53,17.11,7.53s12.59-2.49,17.02-7.47,6.65-12.45,6.65-22.41-2.16-17.19-6.47-22.03-10.05-7.27-17.2-7.27-12.91,2.45-17.29,7.35-6.56,12.29-6.56,22.18Z"/>
    <ellipse class="cls-1" cx="41.63" cy="44.41" rx="29.86" ry="36.5"/>
  </g>
</svg>