<?xml version="1.0" encoding="UTF-8"?><svg id="Layer_2" xmlns="http://www.w3.org/2000/svg" viewBox="0 0 57.55 61.22"><defs><style>.cls-1{fill:#fff;stroke:#020202;stroke-miterlimit:10;stroke-width:2px;}</style></defs><g id="Layer_2-2"><path class="cls-1" d="m1,30.96c0-5.83.87-10.73,2.62-14.69,1.3-2.92,3.08-5.53,5.33-7.85,2.25-2.32,4.72-4.04,7.4-5.16,3.57-1.51,7.68-2.27,12.34-2.27,8.44,0,15.19,2.62,20.25,7.85,5.06,5.23,7.6,12.51,7.6,21.84s-2.51,16.48-7.54,21.7c-5.03,5.22-11.75,7.83-20.16,7.83s-15.29-2.6-20.31-7.79c-5.03-5.2-7.54-12.35-7.54-21.46Zm11.91-.39c0,6.48,1.5,11.4,4.49,14.75,2.99,3.35,6.8,5.02,11.41,5.02s8.39-1.66,11.35-4.98c2.96-3.32,4.43-8.3,4.43-14.94s-1.44-11.46-4.32-14.69c-2.88-3.23-6.7-4.84-11.46-4.84s-8.61,1.63-11.52,4.9c-2.92,3.27-4.38,8.2-4.38,14.79Z"/></g></svg>