<svg xmlns="http://www.w3.org/2000/svg" viewBox="0 0 196.46 192.15">
    <defs>
        <style>.cls-1{fill:#ffffff;}</style>
    </defs>
    <g id="Layer_2" data-name="Layer 2">
        <g id="Layer_1-2" data-name="Layer 1">
            <path class="cls-1" d="M0,44.47q0-21,11.72-32.75T44.36,0q21.44,0,33,11.51T89,43.77q0,15.06-5.06,24.7a36.25,36.25,0,0,1-14.65,15q-9.59,5.36-23.88,5.36-14.53,0-24-4.63A36.2,36.2,0,0,1,5.92,69.55Q0,59.53,0,44.47Zm26.54.12q0,13,4.84,18.69T44.53,69q8.55,0,13.24-5.56t4.69-20q0-12.14-4.89-17.73T44.3,20.1a16.1,16.1,0,0,0-12.89,5.68Q26.54,31.47,26.54,44.59Z"/>
            <path class="cls-1" d="M99.84,2.93h34.91L148.21,55.2,161.58,2.93h34.88v85.9H174.73V23.32L158,88.83H138.3L121.58,23.32V88.83H99.84Z"/>
            <path class="cls-1" d="M101.92,146.07q0-21.85,12.18-34T148,99.87q22.27,0,34.33,12t12,33.51q0,15.65-5.26,25.66a37.52,37.52,0,0,1-15.22,15.58q-9.94,5.56-24.8,5.57-15.1,0-25-4.81a37.57,37.57,0,0,1-16-15.22Q101.92,161.71,101.92,146.07Zm27.58.12q0,13.51,5,19.42t13.66,5.91q8.9,0,13.76-5.79T166.81,145q0-12.6-5.08-18.42t-13.79-5.81a16.77,16.77,0,0,0-13.39,5.9Q129.5,132.56,129.5,146.19Z"/>
        </g>
    </g>
</svg>